<?xml version="1.0" standalone="no"?>
<!DOCTYPE svg PUBLIC "-//W3C//DTD SVG 20010904//EN"
 "http://www.w3.org/TR/2001/REC-SVG-20010904/DTD/svg10.dtd">
<svg version="1.0" xmlns="http://www.w3.org/2000/svg"
 width="395.000000pt" height="333.000000pt" viewBox="0 0 395.000000 333.000000"
 preserveAspectRatio="xMidYMid meet">

<g transform="translate(0.000000,333.000000) scale(0.100000,-0.100000)"
fill="#000000" stroke="none">
<path d="M2539 3148 c-1 -7 -2 -71 -3 -143 l-1 -130 -44 -6 c-23 -3 -47 -12
-52 -20 -5 -8 -9 -94 -9 -193 0 -178 0 -179 -25 -202 l-25 -23 0 -209 0 -210
-25 -16 c-24 -16 -25 -20 -25 -131 l0 -115 -218 0 c-214 0 -219 0 -239 23 -11
12 -105 139 -208 282 -103 143 -204 280 -223 304 -49 61 -98 81 -199 81 -149
0 -224 -56 -231 -174 l-3 -61 120 -220 c66 -121 117 -223 115 -227 -3 -5 -90
-8 -194 -8 -182 0 -190 1 -213 23 -15 13 -59 103 -112 232 -48 116 -96 222
-107 238 -11 15 -38 37 -60 48 -35 18 -55 20 -158 17 -110 -3 -119 -5 -153
-31 -72 -55 -72 -53 -75 -432 -3 -379 -1 -398 63 -453 20 -18 104 -58 214
-101 282 -112 370 -138 510 -148 51 -3 94 -10 97 -15 3 -5 -10 -32 -29 -61
-48 -74 -57 -92 -57 -123 0 -81 60 -162 137 -183 49 -14 168 -14 230 -1 58 13
73 26 242 213 73 81 139 151 146 155 8 4 147 6 309 4 l296 -3 0 -424 c0 -415
0 -424 -20 -430 -25 -8 -37 -50 -20 -70 10 -13 57 -15 296 -15 276 0 284 1
294 21 9 16 8 26 -5 45 -8 13 -20 24 -25 24 -6 0 -9 188 -9 498 l0 497 77 77
77 78 72 -72 73 -72 0 -503 c0 -321 -4 -503 -10 -503 -5 0 -17 -11 -25 -24
-13 -19 -14 -29 -5 -45 10 -20 18 -21 293 -21 207 0 286 3 295 12 19 19 14 46
-13 70 l-25 22 0 840 c0 463 -4 846 -8 852 -4 6 -15 13 -24 17 -16 6 -18 26
-18 217 0 210 0 211 -24 233 -24 23 -25 26 -25 201 -1 102 -5 185 -11 197 -8
14 -21 19 -50 19 l-39 0 -3 138 -3 137 -47 3 -48 3 0 -140 0 -141 -40 0 c-67
0 -72 -18 -68 -225 3 -162 2 -176 -15 -181 -32 -10 -39 -53 -37 -249 2 -230 3
-215 -15 -215 -28 0 -35 -50 -35 -251 l0 -199 -150 0 -150 0 0 215 0 215 -25
16 -25 16 0 198 c0 200 -7 250 -35 250 -13 0 -15 26 -15 188 0 211 -2 217 -70
224 l-35 3 -3 143 -3 142 -44 0 c-29 0 -45 -5 -46 -12z m101 -528 l0 -150 -55
0 -55 0 0 150 0 150 55 0 55 0 0 -150z m814 121 c3 -14 3 -57 2 -96 -2 -38 -4
-94 -5 -122 l-1 -53 -54 0 -54 0 -1 133 c0 72 2 140 5 149 4 14 16 17 54 17
45 -1 49 -4 54 -28z m-766 -553 l2 -178 -105 0 -105 0 0 180 0 181 103 -3 102
-3 3 -177z m812 2 l0 -181 -102 3 -103 3 -2 169 c-1 93 0 173 3 178 3 4 50 8
105 8 l99 0 0 -180z m-2163 108 c44 -47 391 -533 387 -540 -3 -5 -79 -8 -169
-8 l-164 0 -29 53 c-16 28 -46 84 -67 122 -21 39 -67 123 -103 188 -68 125
-76 155 -47 187 15 17 31 20 95 20 67 0 79 -3 97 -22z m-815 -125 c8 -10 55
-114 104 -232 48 -117 97 -224 107 -238 10 -13 38 -34 60 -46 l42 -22 748 -3
747 -3 0 -189 0 -190 -239 0 c-132 0 -242 4 -245 8 -2 4 24 41 60 80 53 60 64
79 64 108 0 28 -5 36 -26 45 -15 5 -35 7 -44 4 -10 -3 -128 -128 -261 -278
-134 -150 -260 -289 -280 -309 l-37 -38 -96 0 c-83 0 -99 3 -116 20 -11 11
-20 29 -20 41 0 11 72 128 161 258 171 254 179 271 127 301 -41 22 -64 3 -150
-125 -74 -110 -74 -110 -118 -113 -59 -4 -223 14 -295 33 -118 30 -475 172
-507 202 -17 15 -18 40 -18 337 0 275 2 325 16 344 14 20 23 22 108 22 76 0
96 -3 108 -17z m2218 -443 l0 -180 -60 0 -59 0 -34 53 c-40 61 -57 77 -114
107 l-43 22 0 89 0 89 155 0 155 0 0 -180z m810 -635 l0 -815 -50 0 -50 0 0
618 c0 370 -4 623 -10 632 -7 11 -35 16 -102 20 l-93 5 -3 165 c-1 90 0 170 2
177 4 10 42 13 156 13 l150 0 0 -815z m-1036 394 c24 -51 26 -69 24 -146 l-3
-88 -52 -3 -53 -3 0 177 0 178 29 -28 c16 -15 41 -54 55 -87z m226 -625 l0
-585 -52 3 -53 3 0 442 c0 437 0 442 21 465 42 45 57 88 51 146 -3 29 -10 59
-15 65 -5 7 -12 20 -15 30 -5 14 0 17 28 17 l35 0 0 -586z m120 576 c0 -5 -4
-10 -10 -10 -5 0 -10 5 -10 10 0 6 5 10 10 10 6 0 10 -4 10 -10z m285 0 c3 -5
2 -10 -4 -10 -5 0 -13 5 -16 10 -3 6 -2 10 4 10 5 0 13 -4 16 -10z m205 -576
l0 -585 -52 3 -53 3 -3 583 -2 582 55 0 55 0 0 -586z m-812 -160 l-3 -419 -52
-3 -53 -3 0 425 0 425 48 3 c26 2 50 0 55 -3 4 -3 6 -194 5 -425z"/>
</g>
</svg>
